HIERARCHY
ROOT hip
{
	OFFSET 0.000000 0.000000 0.000000 
	CHANNELS 6 Xposition Yposition Zposition Xrotation Zrotation Yrotation
	JOINT abdomen
	{
		OFFSET 0.000000 3.402643 0.000000 
		CHANNELS 3 Xrotation Zrotation Yrotation
		JOINT chest
		{
			OFFSET 0.000000 8.438565 -0.680529 
			CHANNELS 3 Xrotation Zrotation Yrotation
			JOINT neck
			{
				OFFSET 0.000000 10.207942 -0.272212 
				CHANNELS 3 Xrotation Zrotation Yrotation
				JOINT head
				{
					OFFSET 0.000000 3.130431 0.000000 
					CHANNELS 3 Xrotation Zrotation Yrotation
					End Site
					{
						OFFSET 0.000000 3.130435 0.000000 
					}
				}
			}
			JOINT lCollar
			{
				OFFSET 3.470700 6.669187 -0.816635 
				CHANNELS 3 Yrotation Zrotation Xrotation
				JOINT lShldr
				{
					OFFSET 3.198488 0.000000 0.000000 
					CHANNELS 3 Zrotation Yrotation Xrotation
					JOINT lForeArm
					{
						OFFSET 10.139888 0.000000 0.000000 
						CHANNELS 3 Yrotation Zrotation Xrotation
						JOINT lHand
						{
							OFFSET 8.370511 0.000000 0.000000 
							CHANNELS 3 Zrotation Yrotation Xrotation
							End Site
							{
								OFFSET 4.083176 0.000000 0.000000 
							}
						}
					}
				}
			}
			JOINT rCollar
			{
				OFFSET -3.470700 6.669187 -0.816635 
				CHANNELS 3 Yrotation Zrotation Xrotation
				JOINT rShldr
				{
					OFFSET -3.198488 0.000000 0.000000 
					CHANNELS 3 Zrotation Yrotation Xrotation
					JOINT rForeArm
					{
						OFFSET -10.139888 0.000000 0.000000 
						CHANNELS 3 Yrotation Zrotation Xrotation
						JOINT rHand
						{
							OFFSET -8.370511 0.000000 0.000000 
							CHANNELS 3 Zrotation Yrotation Xrotation
							End Site
							{
								OFFSET -4.083176 0.000000 0.000000 
							}
						}
					}
				}
			}
		}
	}
	JOINT lThigh
	{
		OFFSET 5.308129 -1.633274 1.361059 
		CHANNELS 3 Xrotation Zrotation Yrotation
		JOINT lShin
		{
			OFFSET -2.041588 -20.007561 0.000000 
			CHANNELS 3 Xrotation Zrotation Yrotation
			JOINT lFoot
			{
				OFFSET 0.000000 -19.190928 -1.224953 
				CHANNELS 3 Xrotation Yrotation Zrotation
				End Site
				{
					OFFSET 0.000000 -2.449906 4.627600 
				}
			}
		}
	}
	JOINT rThigh
	{
		OFFSET -5.308129 -1.633274 1.361059 
		CHANNELS 3 Xrotation Zrotation Yrotation
		JOINT rShin
		{
			OFFSET 2.041588 -20.007561 0.000000 
			CHANNELS 3 Xrotation Zrotation Yrotation
			JOINT rFoot
			{
				OFFSET 0.000000 -19.190928 -1.224953 
				CHANNELS 3 Xrotation Yrotation Zrotation
				End Site
				{
					OFFSET 0.000000 -2.449906 4.627600 
				}
			}
		}
	}
}
MOTION
Frames: 16
Frame Time: 0.033333
-0.384745 45.954781 -5.359058 -10.390630 -0.057633 -2.147635 0.000000 0.000000 0.000000 2.646706 -0.741396 1.225371 5.835256 -0.165505 -0.411613 6.357396 0.273227 -1.163060 -2.837724 8.202056 3.236804 20.986668 -55.882092 -28.235352 -31.208084 -11.115561 22.829563 7.390225 -9.706352 -4.148342 9.432482 -7.629482 3.580237 -4.546010 51.956688 -13.549371 23.346498 4.498042 27.291277 -9.689678 12.928874 -4.652732 -6.122642 18.832441 11.958421 39.287170 -3.514173 -2.408100 -18.425993 1.692423 -10.373025 -6.463821 -15.786857 -8.583523 39.835091 -0.712577 2.677009 -20.629438 -2.129090 11.738194 
-0.375938 45.957546 -5.384984 -10.341801 -0.048035 -2.188500 0.000000 0.000000 0.000000 2.578325 -0.712169 1.247109 5.881514 -0.282366 -0.311387 6.191249 0.653717 -1.228709 -2.834753 8.145731 3.178298 21.002050 -55.892929 -28.294992 -31.149227 -11.129209 22.753477 7.345782 -9.777809 -4.147430 9.490582 -7.724122 3.530381 -4.361299 51.857281 -13.425244 23.297937 4.514839 27.213730 -9.847854 12.927873 -4.670232 -6.200900 18.844059 11.980309 39.278679 -3.543538 -2.320250 -18.357597 1.686277 -10.363940 -6.580457 -15.773881 -8.525434 39.826103 -0.732105 2.640924 -20.569889 -2.131883 11.746352 
-0.368137 45.962585 -5.404362 -10.341798 -0.019214 -2.125400 0.000000 0.000000 0.000000 2.568580 -0.751198 1.274771 5.816321 -0.177301 -0.363226 6.396414 0.458644 -1.189551 -2.910557 8.299505 3.164158 21.003504 -55.882973 -28.275578 -31.224268 -11.177561 22.358372 7.375239 -9.775859 -4.148973 9.345606 -7.518950 3.489356 -4.578930 51.839069 -13.461402 23.287571 4.483136 27.436270 -9.746694 12.758565 -4.644188 -6.230150 18.813253 11.976763 39.241405 -3.582711 -2.466178 -18.314341 1.680502 -10.299656 -6.571280 -15.797126 -8.546308 39.797844 -0.758070 2.592267 -20.544880 -2.128098 11.793232 
-0.349135 45.965355 -5.420094 -10.341805 0.067249 -2.023991 0.000000 0.000000 0.000000 2.519771 -0.790251 1.215093 5.855403 -0.162412 -0.402334 6.415965 0.390340 -1.147723 -2.962009 8.260221 3.121189 20.895067 -55.908825 -28.169205 -31.306332 -11.187828 22.396685 7.413851 -9.763512 -4.151025 9.317301 -7.633444 3.461591 -4.277268 51.758190 -13.270603 23.366106 4.495065 27.318882 -9.736920 12.622180 -4.632279 -6.279119 18.698061 11.910994 39.212639 -3.592530 -2.428423 -18.278391 1.664837 -10.252422 -6.552333 -15.925134 -8.628037 39.788685 -0.722563 2.604061 -20.524328 -2.112221 11.790816 
-0.341080 45.957298 -5.430036 -10.332037 0.057644 -2.022228 0.000000 0.000000 0.000000 2.470910 -0.741498 1.139755 5.852184 -0.238760 -0.405410 6.318276 0.487893 -1.162047 -2.963585 8.116084 3.063596 20.866741 -55.728523 -27.845436 -31.525688 -11.176806 22.322966 7.540829 -9.745303 -4.167454 9.385472 -7.843636 3.428725 -3.945029 51.726574 -13.148721 23.363604 4.429939 27.506655 -9.825419 12.753194 -4.657822 -6.317263 18.723362 11.936674 39.290115 -3.596038 -2.455022 -18.310806 1.662767 -10.220799 -6.601269 -15.926492 -8.614659 39.824898 -0.738465 2.667806 -20.556473 -2.116120 11.767239 
-0.331769 45.952900 -5.437838 -10.419930 0.067232 -2.043614 0.000000 0.000000 0.000000 2.461155 -0.761016 1.207399 6.002410 -0.113656 -0.434918 6.044877 0.341456 -1.157836 -2.979096 8.222794 3.063431 20.817324 -55.873772 -27.807442 -31.403755 -11.154691 22.679340 7.565129 -9.812203 -4.178251 9.460879 -7.498543 3.402752 -4.020699 51.442524 -12.980413 23.600153 4.455424 27.443203 -9.735456 12.739753 -4.641550 -6.239693 18.716618 11.974293 39.316666 -3.615360 -2.502532 -18.332790 1.655643 -10.191914 -6.533133 -15.926507 -8.590176 39.852139 -0.771561 2.696465 -20.544481 -2.141342 11.807522 
-0.332648 45.954781 -5.448283 -10.537109 -0.009601 -2.146652 0.000000 0.000000 0.000000 2.549053 -0.760965 1.264825 5.927399 0.013893 -0.360335 6.259728 0.321996 -1.087398 -2.864647 8.400032 3.153468 20.869701 -55.935684 -28.001966 -31.400572 -11.133917 22.625555 7.439639 -9.996709 -4.172766 9.377334 -7.078453 3.453360 -4.702368 51.593685 -13.193730 23.380030 4.579680 27.225637 -9.903403 12.875132 -4.673128 -6.102632 18.810211 12.048621 39.314011 -3.640865 -2.529842 -18.325081 1.655159 -10.169927 -6.443919 -15.832957 -8.526194 39.813305 -0.800897 2.665702 -20.502264 -2.137190 11.831427 
-0.326985 45.952389 -5.465145 -10.517579 0.019203 -2.220362 0.000000 0.000000 0.000000 2.509982 -0.751232 1.226711 5.876407 -0.060036 -0.393681 6.191381 0.263438 -1.085316 -2.875638 8.371748 3.117850 20.607868 -55.791279 -27.819128 -31.478159 -11.112349 22.653870 7.459946 -10.005151 -4.173791 9.431436 -7.394777 3.440121 -4.317713 51.737995 -13.150268 23.330856 4.594548 27.044640 -9.786702 12.902679 -4.657570 -6.092743 18.790110 12.078827 39.323650 -3.670162 -2.482262 -18.334568 1.653167 -10.171313 -6.542589 -15.866476 -8.509884 39.849609 -0.810375 2.731615 -20.485128 -2.112006 11.790027 
-0.340200 45.972275 -5.474206 -10.595703 0.019198 -2.308279 0.000000 0.000000 0.000000 2.490427 -0.712217 1.209139 5.931314 -0.219115 -0.364323 6.298769 0.409824 -1.159072 -2.946639 7.870068 3.094758 20.774172 -55.607319 -27.678724 -31.454712 -11.153342 22.835409 7.333450 -9.886289 -4.156175 9.576373 -7.674006 3.451682 -3.730175 51.615902 -12.799169 23.661270 4.522427 27.172335 -9.935805 12.637967 -4.661469 -5.917165 18.800467 12.175909 39.191868 -3.729052 -2.482307 -18.257792 1.649183 -10.149734 -6.444582 -15.807537 -8.457154 39.728115 -0.884853 2.779667 -20.437616 -2.115064 11.776258 
-0.341961 45.973282 -5.487293 -10.585938 -0.009599 -2.312659 0.000000 0.000000 0.000000 2.431834 -0.722006 1.219217 5.904097 -0.130197 -0.396133 6.318314 0.361041 -1.147220 -2.989892 7.919611 3.038691 20.686205 -55.613865 -27.552534 -31.419731 -11.189771 22.861023 7.294169 -9.888888 -4.144351 9.557969 -7.497793 3.383746 -3.879182 51.586594 -12.706653 23.692715 4.547870 27.290581 -9.764978 12.737740 -4.643002 -5.937460 18.825439 12.164868 39.192993 -3.719290 -2.469355 -18.254702 1.620308 -10.155053 -6.482152 -15.772416 -8.433788 39.721073 -0.839658 2.746328 -20.400253 -2.118838 11.761887 
-0.349639 45.970890 -5.491446 -10.693361 -0.028788 -2.328548 0.000000 0.000000 0.000000 2.509993 -0.770744 1.255149 5.799693 -0.055436 -0.461173 6.464812 0.312282 -1.193303 -2.876593 7.960694 3.107183 20.871159 -55.777454 -27.844637 -31.328701 -11.185502 22.878422 7.272677 -10.007761 -4.154263 9.389598 -7.376951 3.439089 -4.070644 51.676830 -12.930326 23.826441 4.473523 27.364584 -9.455730 12.700057 -4.598661 -5.859423 18.805395 12.110139 39.219273 -3.647419 -2.418439 -18.261044 1.649235 -10.216435 -6.395617 -15.737474 -8.410515 39.741489 -0.868990 2.698230 -20.399929 -2.116285 11.763314 
-0.364614 45.963211 -5.502144 -10.683607 -0.086367 -2.288394 0.000000 0.000000 0.000000 2.509982 -0.751232 1.207179 5.719454 -0.091063 -0.454000 6.513587 0.517234 -1.200515 -2.845497 8.168073 3.107618 20.698668 -55.764835 -27.906477 -31.410223 -11.197525 22.765530 7.396362 -9.940850 -4.160942 9.372583 -7.397923 3.434886 -4.161138 51.609402 -13.015642 23.942560 4.433731 27.463608 -9.563894 12.829754 -4.625208 -5.937267 18.882677 12.106631 39.257706 -3.621445 -2.489717 -18.249752 1.655090 -10.235235 -6.405249 -15.650395 -8.389082 39.771744 -0.875284 2.668007 -20.428289 -2.117300 11.774471 
-0.370275 45.966484 -5.506672 -10.751971 -0.105536 -2.255350 0.000000 0.000000 0.000000 2.529532 -0.780489 1.225157 5.712829 0.027813 -0.476713 6.435527 0.243966 -1.122517 -2.893396 8.243091 3.132460 20.633915 -55.782887 -27.888510 -31.428795 -11.186444 22.766443 7.339283 -9.827177 -4.146921 9.375875 -7.267601 3.445641 -4.326410 51.493328 -13.071678 23.893677 4.435738 27.477394 -9.703773 12.849597 -4.641763 -5.878705 18.885094 12.073348 39.242306 -3.556897 -2.486628 -18.246773 1.633920 -10.247021 -6.326644 -15.638164 -8.423893 39.774082 -0.810558 2.661059 -20.411806 -2.114016 11.742222 
-0.378958 45.965858 -5.509191 -10.810573 -0.124700 -2.261345 0.000000 0.000000 0.000000 2.519765 -0.780495 1.166696 5.807781 -0.042237 -0.433372 6.328058 0.439107 -1.101432 -2.895682 8.146035 3.117069 20.550964 -55.749916 -27.722015 -31.420527 -11.203906 22.646645 7.193312 -9.856405 -4.129431 9.382473 -7.385317 3.449599 -4.249520 51.688065 -13.033737 23.662735 4.547534 27.189600 -9.837411 12.644691 -4.646880 -5.820069 18.912756 12.099554 39.251671 -3.553461 -2.505616 -18.246130 1.660047 -10.276477 -6.288309 -15.602104 -8.416562 39.777031 -0.829828 2.567062 -20.399483 -2.097626 11.752283 
-0.384496 45.970257 -5.509567 -10.878920 -0.086311 -2.249037 0.000000 0.000000 0.000000 2.510010 -0.800013 1.214799 5.905250 -0.113263 -0.389768 6.181563 0.458574 -1.113145 -3.008772 8.033021 3.114176 20.589151 -55.699142 -27.485764 -31.455593 -11.236875 22.692781 7.321496 -9.710902 -4.144742 9.388707 -7.367693 3.434462 -4.258053 51.659119 -13.082453 23.526554 4.551767 27.382574 -9.820527 12.685001 -4.645910 -5.722693 18.865715 12.066173 39.203674 -3.530453 -2.513567 -18.236210 1.652079 -10.269832 -6.210633 -15.632368 -8.442310 39.785130 -0.839922 2.602921 -20.409735 -2.116868 11.763316 
-0.386510 45.978947 -5.518502 -10.869166 -0.124676 -2.173327 0.000000 0.000000 0.000000 2.490460 -0.770756 1.226115 5.913931 -0.156244 -0.400498 6.220583 0.575674 -1.205595 -3.059296 8.109283 3.107958 20.429508 -55.764103 -27.460041 -31.493383 -11.214122 22.828104 7.255417 -9.754425 -4.131374 9.301206 -7.392743 3.423977 -4.249036 51.717293 -13.023779 23.340832 4.556680 27.476250 -9.821224 12.694743 -4.645909 -5.771622 18.893858 12.032081 39.165249 -3.501121 -2.539566 -18.177704 1.654152 -10.267344 -6.151184 -15.580891 -8.465233 39.688072 -0.790706 2.625837 -20.385628 -2.104093 11.703103 
